<?xml version="1.0" encoding="iso-8859-1"?>
<!-- Generator: Adobe Illustrator 24.1.2, SVG Export Plug-In . SVG Version: 6.00 Build 0)  -->
<svg version="1.1" id="Layer_30" xmlns="http://www.w3.org/2000/svg" xmlns:xlink="http://www.w3.org/1999/xlink" x="0px" y="0px"
	 viewBox="0 0 48 48" style="enable-background:new 0 0 48 48;" xml:space="preserve">
<path style="fill:#50E6FF;" d="M39,16v25c0,1.105-0.895,2-2,2H11c-1.105,0-2-0.895-2-2V7c0-1.105,0.895-2,2-2h17l3,8L39,16z"/>
<linearGradient id="SVGID_1_" gradientUnits="userSpaceOnUse" x1="28.529" y1="2761.4709" x2="33.6" y2="2756.3999" gradientTransform="matrix(1 0 0 1 0 -2746)">
	<stop  offset="0" style="stop-color:#3079D6"/>
	<stop  offset="1" style="stop-color:#297CD2"/>
</linearGradient>
<path style="fill:url(#SVGID_1_);" d="M28,5v9c0,1.105,0.895,2,2,2h9L28,5z"/>
<path style="fill:#057093;" d="M32.5,24h-17c-0.276,0-0.5-0.224-0.5-0.5v-1c0-0.276,0.224-0.5,0.5-0.5h17c0.276,0,0.5,0.224,0.5,0.5
	v1C33,23.776,32.776,24,32.5,24z"/>
<path style="fill:#057093;" d="M30.5,28h-15c-0.276,0-0.5-0.224-0.5-0.5v-1c0-0.276,0.224-0.5,0.5-0.5h15c0.276,0,0.5,0.224,0.5,0.5
	v1C31,27.776,30.776,28,30.5,28z"/>
<path style="fill:#057093;" d="M32.5,32h-17c-0.276,0-0.5-0.224-0.5-0.5v-1c0-0.276,0.224-0.5,0.5-0.5h17c0.276,0,0.5,0.224,0.5,0.5
	v1C33,31.776,32.776,32,32.5,32z"/>
<path style="fill:#057093;" d="M30.5,36h-15c-0.276,0-0.5-0.224-0.5-0.5v-1c0-0.276,0.224-0.5,0.5-0.5h15c0.276,0,0.5,0.224,0.5,0.5
	v1C31,35.776,30.776,36,30.5,36z"/>
</svg>